<svg width="19" height="22" viewBox="0 0 19 22" fill="none" xmlns="http://www.w3.org/2000/svg">
<path d="M3.5 7.5V6.5C3.5 3.18629 6.18629 0.5 9.5 0.5C12.8137 0.5 15.5 3.18629 15.5 6.5V7.5H17.5C18.0523 7.5 18.5 7.94772 18.5 8.5V20.5C18.5 21.0523 18.0523 21.5 17.5 21.5H1.5C0.94772 21.5 0.5 21.0523 0.5 20.5V8.5C0.5 7.94772 0.94772 7.5 1.5 7.5H3.5ZM16.5 9.5H2.5V19.5H16.5V9.5ZM8.5 15.2324C7.9022 14.8866 7.5 14.2403 7.5 13.5C7.5 12.3954 8.3954 11.5 9.5 11.5C10.6046 11.5 11.5 12.3954 11.5 13.5C11.5 14.2403 11.0978 14.8866 10.5 15.2324V17.5H8.5V15.2324ZM5.5 7.5H13.5V6.5C13.5 4.29086 11.7091 2.5 9.5 2.5C7.29086 2.5 5.5 4.29086 5.5 6.5V7.5Z" fill="#1C1C1C"/>
</svg>
