<svg width="17" height="22" viewBox="0 0 17 22" fill="none" xmlns="http://www.w3.org/2000/svg">
<path d="M16.5 21.5H14.5V19.5C14.5 17.8431 13.1569 16.5 11.5 16.5H5.5C3.84315 16.5 2.5 17.8431 2.5 19.5V21.5H0.5V19.5C0.5 16.7386 2.73858 14.5 5.5 14.5H11.5C14.2614 14.5 16.5 16.7386 16.5 19.5V21.5ZM8.5 12.5C5.18629 12.5 2.5 9.8137 2.5 6.5C2.5 3.18629 5.18629 0.5 8.5 0.5C11.8137 0.5 14.5 3.18629 14.5 6.5C14.5 9.8137 11.8137 12.5 8.5 12.5ZM8.5 10.5C10.7091 10.5 12.5 8.70914 12.5 6.5C12.5 4.29086 10.7091 2.5 8.5 2.5C6.29086 2.5 4.5 4.29086 4.5 6.5C4.5 8.70914 6.29086 10.5 8.5 10.5Z" fill="#1C1C1C"/>
</svg>
